<?xml version="1.0" encoding="UTF-8" standalone="no"?>
<svg
   xmlns:dc="http://purl.org/dc/elements/1.1/"
   xmlns:cc="http://creativecommons.org/ns#"
   xmlns:rdf="http://www.w3.org/1999/02/22-rdf-syntax-ns#"
   xmlns:svg="http://www.w3.org/2000/svg"
   xmlns="http://www.w3.org/2000/svg"
   id="svg8"
   version="1.1"
   viewBox="0 0 100 100"
   height="100mm"
   width="100mm">
  <defs
     id="defs2" />
  <metadata
     id="metadata5">
    <rdf:RDF>
      <cc:Work
         rdf:about="">
        <dc:format>image/svg+xml</dc:format>
        <dc:type
           rdf:resource="http://purl.org/dc/dcmitype/StillImage" />
        <dc:title></dc:title>
      </cc:Work>
    </rdf:RDF>
  </metadata>
  <g
     transform="translate(0,-197)"
     id="layer1">
    <path
       id="path3730"
       d="m 56.083955,210.9398 6.088643,1.52216 3.622747,1.67438 1.765709,2.31368 -9.741842,0.18266 -1.857033,1.91794 -0.791526,1.49171 0.06089,2.07014 0.09133,1.85704 0.487093,1.18729 2.739892,1.88748 2.191915,2.34413 2.252799,4.53605 2.039697,6.42351 0.426209,2.22236 1.735263,6.39308 1.339504,5.47979 1.309058,7.6717 1.126408,9.40697 0.791519,8.34144 0.243543,6.69751 -1.613485,0.21312 -3.561868,-1.79616 -5.905988,-5.02313 -6.636625,-7.3064 -7.367269,-9.58961 -0.36532,1.52216 v 0.82197 l 0.547979,0.60886 1.40039,0.15222 0.395763,0.0304 0.689108,0.94374 -0.689108,0.36532 -1.491723,-0.0609 -0.487089,-0.30443 -0.426205,0.24355 -0.608864,-0.36532 -0.639308,-0.0304 -0.54798,0.39576 -1.796152,0.15222 -1.826594,-0.12178 -0.85241,0.18266 c -0.32281,0.30983 -0.599132,0.66 -0.882856,1.00462 l -0.121772,-1.9788 0.395763,-0.45665 1.88748,-0.18267 1.857037,0.15223 0.791526,-0.82197 1.278618,-3.34876 0.334872,-0.45665 -1.643933,-2.43546 -1.461276,1.36995 -0.09133,-2.07015 -1.796152,1.97882 -0.06089,-2.28325 -1.887482,3.19655 -0.09133,-3.19654 -1.917924,1.94836 v -4.87092 l -2.313686,2.34414 0.213102,-6.97152 -2.009255,1.85705 0.06089,-4.14028 -2.344129,2.16146 -0.28048,-16.77638 -0.08484,-3.49882 -0.03045,-2.86166 0.730637,-1.73527 0.821967,-1.06551 1.004628,-1.06551 1.430833,-0.94375 1.004626,-3.89673 1.430834,-2.80078 1.978811,-2.89211 1.583047,-1.7657 1.583049,-1.52217 0.09133,-0.4262 -0.966798,-0.81828 1.960979,0.12024 0.83714,-0.32463 -0.849488,-0.75998 1.955466,0.23695 0.908736,-0.18651 -0.49907,-0.95418 2.619912,0.85979 1.03507,-0.0304 -0.277682,-1.05137 2.987131,1.53846 -0.008,-1.08552 2.321709,1.93793 1.79615,1.88748 z"
       style="fill:#000000;stroke:#000000;stroke-width:0.12518784px;stroke-linecap:butt;stroke-linejoin:miter;stroke-opacity:1" />
  </g>
</svg>
